<?xml version="1.0" standalone="no"?>
<!DOCTYPE svg PUBLIC "-//W3C//DTD SVG 20010904//EN"
 "http://www.w3.org/TR/2001/REC-SVG-20010904/DTD/svg10.dtd">
<svg version="1.0" xmlns="http://www.w3.org/2000/svg"
 width="170.000000pt" height="61.000000pt" viewBox="0 0 170.000000 61.000000"
 preserveAspectRatio="xMidYMid meet">

<g transform="translate(0.000000,61.000000) scale(0.100000,-0.100000)"
fill="#000000" stroke="none">
<path d="M250 432 c0 -23 -8 -37 -33 -56 -19 -15 -41 -26 -50 -26 -21 0 -22
-23 -1 -41 13 -10 20 -10 45 5 24 14 29 15 29 2 0 -8 -11 -28 -25 -44 -14 -17
-25 -35 -25 -40 0 -17 21 -26 30 -12 4 7 9 0 13 -19 10 -48 22 -36 19 18 -3
31 2 60 12 80 9 17 12 31 6 31 -5 0 -10 7 -10 15 0 8 5 15 10 15 16 0 12 76
-5 90 -13 11 -15 8 -15 -18z"/>
<path d="M339 453 c-1 -4 -1 -12 0 -16 1 -4 -10 -23 -24 -41 -29 -38 -25 -71
7 -63 19 5 19 5 3 -13 -20 -22 -11 -43 16 -35 13 4 19 2 19 -9 0 -19 1 -19
-38 -5 -19 6 -37 7 -47 2 -13 -8 -7 -12 27 -23 l43 -14 -40 -6 c-27 -3 -36 -8
-27 -14 7 -4 33 -5 58 -1 39 6 46 3 69 -21 23 -25 25 -25 25 -6 0 11 -12 30
-26 41 -17 14 -24 26 -20 37 4 9 -1 28 -9 41 -13 19 -14 27 -5 39 16 18 4 48
-15 40 -52 -21 -51 -21 -31 2 10 12 27 24 37 27 11 4 19 10 19 15 0 12 -40 33
-41 23z"/>
<path d="M629 429 l-24 -20 25 4 c14 3 40 8 57 12 29 7 34 4 42 -17 5 -13 12
-53 16 -88 l7 -65 -42 -2 -41 -3 21 30 c22 31 20 50 -7 50 -14 0 -14 2 1 19
34 37 -16 57 -62 25 -27 -19 -30 -39 -2 -22 30 19 36 1 10 -27 -21 -22 -22
-29 -12 -45 9 -14 9 -20 1 -20 -7 0 -10 -13 -7 -35 5 -41 -5 -45 -27 -11 -14
21 -14 27 0 63 13 32 14 45 4 69 l-11 29 -13 -35 c-30 -79 -10 -160 40 -160
13 0 36 -5 52 -11 80 -30 131 25 118 130 -3 31 -11 71 -16 88 -19 61 -85 82
-130 42z m39 -201 c9 -9 18 -9 37 0 33 15 35 15 35 -3 0 -33 -71 -46 -106 -20
-16 13 -17 16 -4 25 19 13 24 12 38 -2z"/>
<path d="M1409 418 c-10 -18 -9 -20 5 -15 25 10 19 -6 -14 -38 -35 -33 -39
-62 -9 -73 l20 -8 -20 -18 c-23 -21 -26 -42 -11 -66 7 -12 15 -11 50 9 40 22
42 22 55 5 11 -15 16 -16 26 -7 9 9 8 17 -5 37 -16 25 -46 36 -46 17 0 -5 -9
-11 -20 -14 -29 -8 -25 2 22 50 32 33 39 46 31 54 -9 9 -23 8 -58 -6 -54 -20
-68 -15 -28 10 54 34 74 57 62 72 -17 20 -47 16 -60 -9z"/>
<path d="M940 415 c0 -7 -8 -18 -17 -24 -29 -16 -11 -20 30 -8 39 12 48 31 21
41 -25 9 -34 7 -34 -9z"/>
<path d="M1012 376 c-13 -30 -33 -63 -44 -73 -21 -18 -21 -18 -14 9 8 35 -6
43 -45 22 -26 -13 -33 -14 -41 -2 -6 9 -7 5 -2 -12 10 -38 24 -52 40 -39 10 8
14 0 16 -42 2 -36 8 -54 18 -57 8 -3 12 -1 8 3 -4 4 -1 20 7 36 19 36 19 45 0
29 -12 -10 -15 -9 -15 6 0 11 10 24 23 29 12 6 33 27 46 48 13 20 29 37 36 37
6 0 28 -20 48 -45 29 -35 45 -45 67 -45 36 0 39 13 8 27 -45 21 -113 85 -110
104 7 40 -24 16 -46 -35z"/>
<path d="M1290 375 c0 -42 -3 -47 -30 -59 -29 -12 -30 -13 -12 -29 10 -9 24
-17 32 -17 9 0 11 -9 7 -29 -4 -20 -1 -33 9 -42 18 -15 15 -19 43 63 24 70 23
98 -3 98 -10 0 -13 6 -10 15 6 16 -12 45 -27 45 -5 0 -9 -20 -9 -45z m44 -87
c-14 -26 -19 -29 -22 -15 -2 10 4 27 14 38 25 27 28 17 8 -23z"/>
<path d="M400 325 c7 -8 19 -15 27 -15 13 0 13 3 3 15 -7 8 -19 15 -27 15 -13
0 -13 -3 -3 -15z"/>
<path d="M1036 315 c-3 -8 -12 -15 -21 -15 -11 0 -15 -11 -15 -43 0 -51 13
-67 56 -67 63 0 78 18 49 56 -8 10 -15 15 -14 9 4 -28 -3 -35 -36 -35 -50 0
-42 40 13 69 19 10 21 15 11 27 -15 18 -35 18 -43 -1z"/>
</g>
</svg>
